<svg width="18" height="18" viewBox="0 0 18 18" fill="none" xmlns="http://www.w3.org/2000/svg">
<rect width="18" height="18" rx="9" fill="#42867B"/>
<path d="M6.38008 14H11.6201C13.0001 14 13.5501 13.155 13.6151 12.125L13.8751 7.995C13.9451 6.915 13.0851 6 12.0001 6C11.6951 6 11.4151 5.825 11.2751 5.555L10.9151 4.83C10.6851 4.375 10.0851 4 9.57508 4H8.43008C7.91508 4 7.31508 4.375 7.08508 4.83L6.72508 5.555C6.58508 5.825 6.30508 6 6.00008 6C4.91508 6 4.05508 6.915 4.12508 7.995L4.38508 12.125C4.44508 13.155 5.00008 14 6.38008 14Z" stroke="white" stroke-width="1.125" stroke-linecap="round" stroke-linejoin="round"/>
<path d="M8.25 7H9.75" stroke="white" stroke-width="1.125" stroke-linecap="round" stroke-linejoin="round"/>
<path d="M9 12C9.895 12 10.625 11.27 10.625 10.375C10.625 9.48 9.895 8.75 9 8.75C8.105 8.75 7.375 9.48 7.375 10.375C7.375 11.27 8.105 12 9 12Z" stroke="white" stroke-width="1.125" stroke-linecap="round" stroke-linejoin="round"/>
</svg>
